<?xml version="1.0" encoding="utf-8" ?><svg xmlns="http://www.w3.org/2000/svg" xmlns:xlink="http://www.w3.org/1999/xlink" width="1024" height="1024" viewBox="0 0 1024 1024"><path fill="#0E7155" d="M507.204 326.012C567.58 323.197 618.832 369.806 621.745 430.178C624.658 490.549 578.132 541.876 517.765 544.887C457.26 547.904 405.79 501.248 402.871 440.738C399.951 380.229 446.69 328.834 507.204 326.012Z"/><path fill="white" d="M509.788 350.211C529.532 349.128 552.35 356.915 567.372 369.756C584.615 384.203 595.268 405.021 596.899 427.457C585.751 427.615 574.601 427.65 563.452 427.564C551.185 427.521 538.356 426.065 528.531 435.097C520.245 442.713 524.752 450.828 522.849 459.909C519.747 474.718 516.143 489.523 512.728 504.281C512.571 505.154 512.423 505.677 512.193 506.531C511.251 506.111 501.588 463.766 501.691 460.185C502.624 427.769 488.61 427.91 462.289 427.693L427.831 427.501C428.482 422.129 429.056 417.044 430.558 411.818C441.182 374.867 472.355 352.251 509.788 350.211Z"/><path fill="white" d="M430.343 456.631C442.374 460.71 468.055 464.215 474.599 473.682C483.258 486.208 486.063 500.391 484.275 515.144C476.03 513.938 462.798 504.64 456.264 499.654C445.245 491.245 431.544 470.473 430.343 456.631Z"/><path fill="white" d="M594.047 456.577C594.193 459.193 592.091 464.616 591.019 467.125C579.959 493.032 565.532 505.319 540.153 515.593C538.514 501.614 540.491 494.001 545.651 480.967C553.628 460.817 575.714 463.925 593.329 456.868L594.047 456.577Z"/><path fill="#0E7155" d="M505.24 282.719C535.837 280.945 568.723 288.66 594.432 305.432C604.163 311.78 613.253 320.123 621.551 328.231C618.096 332.342 608.925 341.311 605.001 345.139C597.898 338.098 591.601 333.143 583.122 327.834C519.779 288.171 439.253 306.294 400.457 370.716C383.334 399.368 378.196 433.616 386.16 466.031C394.318 498.126 415.895 527.723 444.41 544.654C473.77 562.338 508.957 567.622 542.216 559.339C577.953 550.099 606.373 527.669 624.945 496.009C636.04 476.283 642.705 452.177 642.449 429.515L665.6 429.509C666.181 564.092 510.836 639.089 409.356 548.515C307.492 457.599 368.027 291.145 505.24 282.719Z"/><path fill="#0E7155" d="M883.053 649.584L902.817 649.569C902.672 679.477 902.695 709.386 902.889 739.294L884.359 739.63L884.003 732.823C876.531 741.647 865.532 741.866 855.222 739.172C832.16 730.962 825.129 700.025 841.423 682.661C852.231 671.143 871.415 668.835 883.121 680.451L883.053 649.584Z"/><path fill="white" d="M867.922 689.137C884.863 689.971 890.748 720.383 868.167 724.092C852.779 722.011 848.561 708.138 856.272 695.062C858.518 691.254 863.706 689.808 867.922 689.137Z"/><path fill="#0E7155" d="M494.594 676.101C512.153 674.666 527.582 687.667 529.146 705.216C530.71 722.764 517.825 738.289 500.288 739.983C482.566 741.695 466.843 728.644 465.262 710.91C463.681 693.176 476.849 677.55 494.594 676.101Z"/><path fill="white" d="M493.274 681.512C507.945 679.244 521.666 689.333 523.875 704.013C526.085 718.694 515.942 732.374 501.253 734.525C486.646 736.664 473.059 726.591 470.861 711.992C468.664 697.394 478.684 683.767 493.274 681.512Z"/><path fill="#0E7155" d="M291.197 676.606C308.473 673.079 325.35 684.176 328.961 701.434C332.572 718.692 321.558 735.623 304.317 739.318C286.958 743.038 269.883 731.932 266.248 714.554C262.612 697.176 273.802 680.156 291.197 676.606Z"/><path fill="white" d="M293.231 681.667C307.68 679.257 321.377 688.925 323.947 703.346C326.516 717.767 317.001 731.571 302.609 734.3C293.156 736.092 283.469 732.667 277.245 725.331C271.02 717.995 269.218 707.879 272.525 698.845C275.833 689.81 283.741 683.25 293.231 681.667Z"/><path fill="#0E7155" d="M938.599 673.658C940.107 673.5 941.621 673.414 943.136 673.4C952.169 673.248 960.829 674.648 967.55 681.401C970.695 684.62 972.949 688.602 974.089 692.956C976.097 700.472 975.333 730.024 975.326 739.972C969.269 739.837 963.213 739.655 957.159 739.426L956.926 733.797C953.122 737.23 950.669 738.858 945.488 739.951C937.864 741.57 929.91 740.052 923.417 735.741C914.949 727.851 916.323 723.705 917.537 713.777C919.772 695.496 954.734 703.813 955.739 698.664C954.793 695.211 953.181 693.17 950.761 690.58C940.199 686.85 933.733 689.67 924.369 694.242C922.371 689.945 920.471 685.605 918.668 681.223C925.151 676.56 930.858 674.888 938.599 673.658Z"/><path fill="white" d="M939.952 713.102C946.342 712.638 949.898 712.861 956.279 713.039C956.192 715.373 956.051 717.482 955.875 719.815C953.564 723.307 953.575 723.52 949.685 725.68C933.916 729.873 928.98 717.605 939.952 713.102Z"/><path fill="#0E7155" d="M674.504 654.117L721.749 653.997L721.75 690.484C721.72 700.961 722.436 712.55 720.052 722.7C716.001 739.94 695.926 743.397 681.217 738.806C675.837 736.415 672.515 733.865 668.321 729.876C672.24 726.028 677.29 720.124 681.09 715.931C683.898 719.724 687.589 723.691 692.701 723.784C704.568 724 702.034 706.003 701.95 697.646L701.638 669.324L674.499 669.192L674.504 654.117Z"/><path fill="#0E7155" d="M770.476 674.427L824.965 674.524L824.914 686.27C817.732 696.698 802.851 714.303 794.438 724.231C804.302 724.728 816.192 724.622 826.215 724.764C826.251 727.483 826.65 736.569 825.722 738.717L824.625 738.957L768.497 739.03C768.155 735.45 768.124 732.196 768.063 728.598C770.955 724.408 775.375 719.825 778.586 715.703C785.744 706.512 793.165 697.551 800.648 688.624L770.571 688.889L770.476 674.427Z"/><path fill="#0E7155" d="M89.7339 655.837C92.0301 655.744 94.2889 655.129 95.3476 657.529C98.6427 664.999 102.141 672.373 105.599 679.767L133.391 740.454L127.247 740.5C124.728 733.444 119.503 722.223 115.98 715.562L94.875 715.697C85.9536 715.642 77.0229 715.873 68.0636 715.815C65.7318 720.556 59.0516 737.352 56.8247 739.983C54.7985 740.424 54.5049 740.348 52.3926 740.198L52.1185 739.465C62.8447 713.059 77.5612 681.626 89.7339 655.837Z"/><path fill="white" d="M91.9993 661.823C94.1513 665.239 98.9191 676.653 100.747 680.759C105.104 690.547 109.944 700.86 114.037 710.745C107.069 710.998 100.097 711.118 93.125 711.107C85.4187 711.128 77.6669 711.306 69.974 711.13C76.3335 695.409 86.6881 677.482 91.9993 661.823Z"/><path fill="#0E7155" d="M595.765 676.651C630.886 674.567 623.814 700.689 624.492 724.337C624.615 728.634 625.112 736.21 624.06 740.179C622.605 740.645 622.54 740.506 620.985 740.302C618.736 737.897 619.73 732.178 619.793 728.306C610.652 738.905 598.103 742.503 584.558 737.784C579.789 736.123 576.754 732.49 574.868 727.902C568.164 698.752 601.204 702.796 619.598 702.612C619.533 680.971 602.669 677.382 585.525 684.531C582.837 685.652 580.118 687.709 577.699 689.37C576.842 688.165 575.938 686.495 575.178 685.177C582.513 680.126 587.045 677.973 595.765 676.651Z"/><path fill="white" d="M595.202 707.188C601.53 706.674 612.778 706.987 619.425 707.11C619.484 720.638 618.706 730.594 603.155 734.308C593.476 736.105 579.518 734.85 578.619 722.75C577.822 712.014 586.45 708.132 595.202 707.188Z"/><path fill="#0E7155" d="M737.209 675.673L756.441 675.575L756.463 739.007L737.236 738.849C736.78 718.43 737.021 696.131 737.209 675.673Z"/><path fill="#0E7155" d="M406.438 650.133C408.308 650.019 409.304 649.816 411.099 650.397C411.693 652.895 411.494 666.674 411.502 670.002L411.603 714.86C421.42 703.642 441.063 686.338 452.313 675.836L459.329 675.831C457 678.384 451.951 682.783 449.268 685.273L430.839 702.497C436.108 709.24 442.464 716.536 447.987 723.182C450.845 726.451 459.82 736.703 461.234 740.01C460.234 740.828 459.598 740.305 458.219 740.423C457.944 740.446 455.894 740.058 455.893 740.058C447.75 731.361 434.169 714.824 427.126 706.267C422.705 710.268 415.986 717.407 411.497 720.74C411.377 725.934 412.013 735.501 411.014 740.008C410.258 740.748 409.895 741.211 408.66 740.963C404.769 740.183 406.057 731.661 406.063 728.999L406.09 707.751C406.147 688.825 405.951 668.995 406.438 650.133Z"/><path fill="#0E7155" d="M197.279 675.66C198.933 675.654 200.595 675.373 201.809 676.306C202.481 685.183 201.986 699.491 202.024 708.708C202.057 716.966 202.44 731.691 201.734 739.551L200.925 740.154C198.701 740.308 198.889 740.682 197.571 739.665C196.363 736.389 196.84 729.646 196.911 725.795C195.821 727.471 194.406 729.619 193.093 731.109C184.082 741.338 163.904 743.034 153.864 733.558C145.254 725.43 146.65 711.046 146.693 700.125L146.523 676.405C148.497 676.205 149.055 676.076 150.979 676.366C153.804 681.709 149.441 715.591 153.747 723.83C156.23 728.582 157.691 730.858 162.926 733.2C168.846 735.849 178.248 735.42 184.127 732.592C197.216 726.298 196.737 713.896 196.663 701.948L196.493 685.447C196.464 682.864 196.224 677.941 197.279 675.66Z"/><path fill="#0E7155" d="M361.6 676.686C371.229 675.702 377.432 677.598 385.648 682.452L382.828 686.137C373.474 680.611 356.182 677.951 349.209 686.435C338.594 700.998 358.612 703.891 367.932 705.524C398.952 710.959 393.37 739.226 362.251 739.525C353.966 739.303 345.96 736.486 339.36 731.473L341.943 727.506C350.162 732.655 357.268 735.784 367.246 734.653C372.245 734.086 377.336 732.973 380.522 728.688C389.379 716.775 374.417 711.924 365.202 710.279C356.871 708.638 343.186 706.411 341.239 696.239C340.477 692.261 342.197 686.923 344.604 683.769C348.55 678.6 355.658 677.39 361.6 676.686Z"/><path fill="#0E7155" d="M229.634 659.615C231.387 659.58 232.585 659.406 234.226 660.024C234.905 662.762 234.582 673.939 234.551 677.507C239.169 677.526 248.654 677.008 252.609 677.843C253.27 679.022 253.018 679.914 252.897 681.288C250.392 682.622 238.133 682.138 234.65 682.121C234.624 691.653 233.279 722.08 235.666 729.235C236.334 731.237 237.559 733.44 239.59 734.294C244.893 736.525 250.919 733.653 255.89 731.814C256.868 732.889 257.617 733.924 258.483 735.08C245.675 743.278 229.657 742.253 229.431 723.815C229.377 719.39 229.411 714.929 229.418 710.5L229.447 682.172C225.018 682.183 221.46 682.875 217.805 680.425L217.951 678.912C221.008 676.689 225.86 677.25 229.53 677.331C229.475 671.426 229.51 665.52 229.634 659.615Z"/><path fill="#0E7155" d="M549.498 650.22C551.288 650.142 552.324 649.946 554.005 650.584C555.278 654.117 554.476 732.344 554.483 740.633C552.702 740.634 551.194 740.855 549.677 740.026C549.001 734.338 549.315 714.134 549.39 707.181C549.591 688.632 548.839 668.556 549.498 650.22Z"/><path fill="#0E7155" d="M753.463 645.481C760.783 645.429 767.921 645.461 775.257 645.335C768.428 652.435 762.191 658.605 755.447 665.908C754.283 667.098 753.414 667.888 752.169 668.981C747.397 669.238 742.612 669.143 737.854 668.696C741.241 662.874 749.22 651.173 753.463 645.481Z"/><path fill="#0E7155" d="M344.159 649.956C344.794 649.916 347.737 649.707 348.259 649.89C353.075 651.578 360.521 661.059 363.433 664.765C368.059 660.148 372.157 654.784 376.766 649.993C381.236 650.024 383.76 648.748 380.579 652.514C375.562 657.92 370.685 663.415 365.696 668.822C365.228 669.329 361.264 668.557 360.863 668.136C355.179 662.157 349.958 655.827 344.159 649.956Z"/></svg>